<svg width="69" height="71" viewBox="0 0 69 71" fill="none" xmlns="http://www.w3.org/2000/svg">
<g clip-path="url(#clip0_45_259)">
<path d="M34.4297 1.93945C53.4446 1.93952 68.8594 17.3543 68.8594 36.3691C68.8594 36.3919 68.8584 36.4147 68.8584 36.4375H68.8594V71H0V36.3682C0.000263887 17.3535 15.4149 1.93945 34.4297 1.93945ZM1.0625 69.9375H26.749C14.1808 67.0738 4.23009 57.3336 1.0625 44.8838V69.9375ZM67.7969 44.8838C64.6293 57.3336 54.6786 67.0737 42.1104 69.9375H67.7969V44.8838ZM34.4297 3.00195C16.0016 3.00195 1.0625 17.941 1.0625 36.3691C1.06283 54.797 16.0018 69.7363 34.4297 69.7363C52.4791 69.7363 67.1797 55.4042 67.7764 37.5H47.7051V36.4375H67.7959C67.7959 36.4147 67.7969 36.3919 67.7969 36.3691C67.7969 17.9411 52.8578 3.00202 34.4297 3.00195ZM5.26953 0C8.17989 0 10.5398 2.35922 10.54 5.26953C10.54 8.17995 8.17997 10.54 5.26953 10.54C2.35926 10.5398 6.59699e-05 8.17983 0 5.26953C0.000197019 2.35934 2.35934 0.000197021 5.26953 0ZM5.26953 1.0625C2.94613 1.0627 1.0627 2.94613 1.0625 5.26953C1.06257 7.59304 2.94605 9.47734 5.26953 9.47754C7.59318 9.47754 9.47747 7.59316 9.47754 5.26953C9.47734 2.94601 7.5931 1.0625 5.26953 1.0625Z" fill="black"/>
</g>
<defs>
<clipPath id="clip0_45_259">
<rect width="68.8591" height="71" fill="white"/>
</clipPath>
</defs>
</svg>
